# xmcd
#
# Track frame offsets:
#	150
#	18105
#	37404
#	57776
#	81481
#	101199
#	117837
#	137919
#	180544
#	196373
#	222723
#	250242
#	274874
#	301472
#	314733
#	340402
#
# Disc length: 4740
#
# Revision: 2
# Processed by: cddbd v1.5.1PL0 Copyright (c) Steve Scherf et al.
# Submitted via: audiograbber 1.81.01
# Normalized: r1:DSETVAR1
#
DISCID=fe128210
DTITLE=Various Artist - Blues
DYEAR=1900
DGENRE=Blues
TTITLE0=Muddy Waters - Everything's gonna be alright
TTITLE1=Clarence 'Gatemouth' Brown - Pressure cooker
TTITLE2=Bobby 'Blue' Band - I'll take care of you
TTITLE3=Muddy Waters - Nine below zero
TTITLE4=Albert King - I'll play the blues for you
TTITLE5=Bobby 'Blue' Band - Soul of a man
TTITLE6=Muddy Waters - Baby please don't go
TTITLE7=Albert King - Stormy Monday blues
TTITLE8=Bobby 'Blue' Band - Ain't that lovin' you
TTITLE9=Muddy Waters - They call me Muddy Waters
TTITLE10=Clarence 'Gatemouth' Brown - Frosty
TTITLE11=Albert King - Born under a bad sign
TTITLE12=Rush - A farewell to King
TTITLE13=Rush - Closer to the heart
TTITLE14=Rush - What you're doing [live]
TTITLE15=Rush - Fly by night
EXTD=
EXTT0=
EXTT1=
EXTT2=
EXTT3=
EXTT4=
EXTT5=
EXTT6=
EXTT7=
EXTT8=
EXTT9=
EXTT10=
EXTT11=
EXTT12=
EXTT13=
EXTT14=
EXTT15=
PLAYORDER=
